<?xml version="1.0" standalone="no"?>
<!DOCTYPE svg PUBLIC "-//W3C//DTD SVG 20010904//EN"
 "http://www.w3.org/TR/2001/REC-SVG-20010904/DTD/svg10.dtd">
<svg version="1.0" xmlns="http://www.w3.org/2000/svg"
 width="260.000000pt" height="260.000000pt" viewBox="0 0 260.000000 260.000000"
 preserveAspectRatio="xMidYMid meet">
<metadata>
Created by potrace 1.11, written by Peter Selinger 2001-2013
</metadata>
<g transform="translate(0.000000,260.000000) scale(0.100000,-0.100000)"
fill="#000000" stroke="none">
<path d="M0 1300 l0 -1300 1300 0 1300 0 0 1300 0 1300 -1300 0 -1300 0 0
-1300z m1780 933 c87 -39 134 -97 150 -185 l7 -38 -73 0 -74 0 0 30 c0 17 -4
30 -10 30 -5 0 -10 7 -10 16 0 20 -24 44 -43 44 -9 0 -17 5 -19 10 -2 6 -42
11 -96 11 -76 0 -98 -3 -125 -20 -36 -22 -57 -58 -57 -97 0 -65 39 -87 235
-134 207 -49 283 -107 293 -223 6 -73 -11 -127 -58 -179 -64 -73 -118 -92
-282 -96 -96 -3 -138 -1 -138 7 0 6 -13 11 -30 11 -16 0 -30 5 -30 10 0 6 -7
10 -15 10 -20 0 -105 85 -105 105 0 8 -4 15 -10 15 -5 0 -10 16 -10 35 0 19
-4 35 -10 35 -5 0 -10 14 -10 30 0 20 5 30 15 30 8 0 15 5 15 10 0 6 24 10 53
10 l52 0 12 -49 c16 -69 35 -93 95 -126 41 -22 69 -30 130 -33 54 -3 78 -1 78
7 0 6 10 11 23 11 35 0 77 42 77 79 0 17 5 31 10 31 6 0 10 9 10 20 0 11 -4
20 -10 20 -5 0 -10 7 -10 15 0 20 -45 65 -65 65 -8 0 -15 5 -15 10 0 6 -18 10
-40 10 -22 0 -40 5 -40 10 0 6 -20 10 -45 10 -25 0 -45 5 -45 10 0 6 -13 10
-30 10 -16 0 -30 5 -30 10 0 6 -13 10 -30 10 -16 0 -30 5 -30 10 0 6 -9 10
-20 10 -11 0 -20 5 -20 10 0 6 -7 10 -15 10 -20 0 -65 45 -65 65 0 8 -4 15
-10 15 -6 0 -10 33 -10 80 0 47 4 80 10 80 6 0 10 7 10 15 0 9 16 31 35 50 19
19 41 35 50 35 8 0 15 5 15 10 0 6 9 10 20 10 11 0 20 4 20 9 0 27 256 22 320
-6z m-630 -303 c0 -196 -4 -339 -11 -371 -15 -68 -75 -130 -141 -147 -58 -15
-208 -16 -208 -2 0 6 -7 10 -15 10 -20 0 -85 65 -85 85 0 8 -4 15 -10 15 -14
0 -13 123 2 138 7 7 31 12 54 12 45 0 54 -10 54 -58 0 -85 110 -145 168 -92
12 11 26 20 32 20 5 0 10 9 10 20 0 11 5 20 10 20 6 0 10 118 10 335 l0 335
65 0 65 0 0 -320z m180 -780 l0 -50 -135 0 c-74 0 -136 -1 -137 -2 -1 -2 -5
-169 -8 -373 l-5 -370 -57 -3 -58 -3 0 376 0 375 -140 0 -140 0 0 50 0 50 340
0 340 0 0 -50z m540 -760 l0 -40 -265 0 -265 0 0 40 0 40 265 0 265 0 0 -40z"/>
</g>
</svg>
